<svg width="970" height="646" viewBox="0 0 970 646" fill="none" xmlns="http://www.w3.org/2000/svg">
<path opacity="0.1" d="M485 646C752.858 646 970 629.658 970 609.5C970 589.342 752.858 573 485 573C217.142 573 0 589.342 0 609.5C0 629.658 217.142 646 485 646Z" fill="#6C63FF"/>
<path d="M542 580L542.32 564.23C557.54 563.384 572.759 562.82 587.979 562.538C596.815 562.382 605.764 562.326 614.314 564.487C620.238 565.99 625.843 568.529 631.687 570.311C643.33 573.853 655.659 574.32 667.884 574.643C679.744 574.966 692.129 575.078 702.779 569.966C721.215 561.057 728.965 539.173 729.867 519.138C730.769 499.103 726.682 478.912 729.525 459" stroke="#3F3D56" stroke-width="12" stroke-miterlimit="10"/>
<path d="M584 611L381 608.449L381.592 603.337L391.413 519H569.68L582.804 603.337L583.806 609.725L584 611Z" fill="#D0D2D5"/>
<path opacity="0.1" d="M584 609H482.591L381 607.802L381.593 603H582.997L584 609Z" fill="black"/>
<path d="M617 604H347V611H617V604Z" fill="#D0D2D5"/>
<path d="M873.999 16.6522C874.019 14.4788 873.597 12.323 872.759 10.3085C871.92 8.29408 870.681 6.46067 869.112 4.91347C867.543 3.36628 865.676 2.13579 863.618 1.2926C861.559 0.44942 859.35 0.0101485 857.117 0H103.883C101.65 0.0116125 99.4416 0.451869 97.3838 1.29557C95.326 2.13927 93.4595 3.36981 91.8912 4.91671C90.3229 6.46361 89.0837 8.29647 88.2444 10.3103C87.4052 12.324 86.9825 14.4792 87.0006 16.6522V461H873.999V16.6522Z" fill="#3F3D56"/>
<path d="M87 456V508.446C87 512.837 88.7787 517.047 91.9448 520.152C95.1109 523.256 99.405 525 103.883 525H857.117C861.595 525 865.889 523.256 869.055 520.152C872.221 517.047 874 512.837 874 508.446V456H87Z" fill="#D0D2D5"/>
<path d="M845 28H119V427H845V28Z" fill="#2F2E41"/>
<path d="M236.574 517C240.877 517.001 245.124 516.061 248.995 514.253C252.866 512.444 256.26 509.814 258.92 506.56C259.733 505.565 260.471 504.516 261.131 503.422L245.545 500.958L262.402 501.082C264.019 497.697 264.9 494.03 264.992 490.305C265.084 486.581 264.384 482.877 262.936 479.422L240.332 490.713L261.186 475.965C259.262 472.664 256.647 469.783 253.505 467.505C250.364 465.227 246.764 463.601 242.936 462.731C239.107 461.862 235.133 461.766 231.264 462.452C227.395 463.137 223.716 464.588 220.461 466.713C217.205 468.838 214.444 471.59 212.351 474.795C210.259 478.001 208.881 481.589 208.306 485.333C207.73 489.078 207.969 492.896 209.007 496.547C210.046 500.198 211.861 503.601 214.338 506.542C216.982 509.788 220.357 512.416 224.208 514.227C228.059 516.038 232.287 516.986 236.574 517Z" fill="#1002F9"/>
<path d="M310.574 518C314.877 518.001 319.124 517.061 322.995 515.253C326.866 513.444 330.26 510.814 332.92 507.56C333.733 506.565 334.471 505.516 335.131 504.422L319.545 501.958L336.402 502.082C338.019 498.697 338.9 495.03 338.992 491.305C339.084 487.581 338.384 483.877 336.936 480.422L314.332 491.713L335.186 476.965C333.262 473.664 330.647 470.783 327.505 468.505C324.364 466.227 320.764 464.601 316.936 463.731C313.107 462.862 309.133 462.766 305.264 463.452C301.395 464.137 297.716 465.588 294.461 467.713C291.205 469.838 288.444 472.59 286.351 475.795C284.259 479.001 282.881 482.589 282.306 486.333C281.73 490.078 281.969 493.896 283.007 497.547C284.046 501.198 285.861 504.601 288.338 507.542C290.982 510.788 294.357 513.416 298.208 515.227C302.059 517.038 306.287 517.986 310.574 518Z" fill="#FF2E00"/>
<path opacity="0.1" d="M502 525L583 604L570.569 525H502Z" fill="black"/>
<path d="M194.92 588.652L216.764 576.192C213.804 571.307 210.028 566.932 205.591 563.246L164.378 575.672L196.723 557.259C188.727 553.013 179.729 550.858 170.614 551.007C161.499 551.156 152.581 553.604 144.738 558.11C136.895 562.615 130.397 569.023 125.884 576.703C121.371 584.383 118.999 593.07 119 601.909C119 630.015 142.499 631 171.5 631C200.501 631 224 630.015 224 601.909C223.994 594.791 222.438 587.755 219.435 581.26L194.92 588.652Z" fill="#6C63FF"/>
<path opacity="0.1" d="M200.768 616.105C198.437 613.862 195.833 611.897 193.01 610.254C189.028 607.719 184.92 605.128 180.229 604.272C176.11 603.515 171.864 604.151 167.642 603.932C160.357 603.503 153.499 600.486 148.407 595.469C145.421 592.505 143.064 588.883 139.471 586.589C135.592 584.152 130.671 583.625 126.071 584.229C124.738 584.417 123.416 584.677 122.112 585.008C120.047 590.503 118.994 596.301 119 602.142C119 630.023 142.56 631 171.636 631C185.744 631 198.548 630.769 208 627.345L206.421 624.513C204.915 621.492 203.015 618.667 200.768 616.105Z" fill="black"/>
</svg>
