<svg width="829" height="365" viewBox="0 0 829 365" fill="none" xmlns="http://www.w3.org/2000/svg">
<g id="undraw_On_the_way_re_swjt 1" clip-path="url(#clip0)">
<g id="LastOne">
<path id="Vector" d="M316.26 363.329C352.02 363.329 381.01 334.339 381.01 298.579C381.01 262.819 352.02 233.829 316.26 233.829C280.499 233.829 251.51 262.819 251.51 298.579C251.51 334.339 280.499 363.329 316.26 363.329Z" fill="#0E0D1D"/>
<path id="Vector_2" d="M316.26 314.449C325.025 314.449 332.13 307.344 332.13 298.579C332.13 289.814 325.025 282.709 316.26 282.709C307.495 282.709 300.39 289.814 300.39 298.579C300.39 307.344 307.495 314.449 316.26 314.449Z" fill="white"/>
<path id="Vector_3" d="M290.5 329C294.09 329 297 326.538 297 323.5C297 320.462 294.09 318 290.5 318C286.91 318 284 320.462 284 323.5C284 326.538 286.91 329 290.5 329Z" fill="white"/>
</g>
<g id="FirstOne">
<path id="Vector_4" d="M600.26 363.329C631.326 363.329 656.51 338.145 656.51 307.079C656.51 276.013 631.326 250.829 600.26 250.829C569.194 250.829 544.01 276.013 544.01 307.079C544.01 338.145 569.194 363.329 600.26 363.329Z" fill="#0E0D1D"/>
<path id="Vector_5" d="M600.26 320.866C607.874 320.866 614.047 314.693 614.047 307.079C614.047 299.465 607.874 293.292 600.26 293.292C592.646 293.292 586.473 299.465 586.473 307.079C586.473 314.693 592.646 320.866 600.26 320.866Z" fill="white"/>
<path id="Vector_6" d="M620.5 291C624.09 291 627 288.538 627 285.5C627 282.462 624.09 280 620.5 280C616.91 280 614 282.462 614 285.5C614 288.538 616.91 291 620.5 291Z" fill="white"/>
</g>
<g id="Hair">
<path id="Vector_7" d="M390.908 20.484C386.503 24.0698 379.783 22.4771 375.054 19.3301C370.326 16.183 366.489 11.7018 361.373 9.23441C352.354 4.88446 341.449 7.77618 332.672 12.5945C323.894 17.4129 316.112 24.0695 306.84 27.8507C297.568 31.6319 285.736 31.8187 278.715 24.6791C276.988 29.6849 276.846 35.1019 278.311 40.191C279.776 45.28 282.775 49.7933 286.899 53.115C291.023 56.4367 296.072 58.405 301.356 58.7514C306.64 59.0978 311.903 57.8054 316.426 55.0505C326.585 48.8621 332.197 35.8868 343.591 32.4712C349.897 30.5811 356.668 32.1034 363.041 33.7522C369.414 35.4011 376.058 37.1827 382.49 35.779C388.921 34.3753 394.937 28.5959 394.119 22.0642L390.908 20.484Z" fill="#2F2E41"/>
</g>
<g id="Driver">
<path id="Vector_8" d="M531.26 126.292C530.796 124.791 530.008 123.411 528.952 122.249C527.896 121.086 526.598 120.169 525.15 119.562C523.701 118.955 522.137 118.673 520.568 118.736C518.999 118.799 517.462 119.206 516.067 119.927L423.971 86.884L419.914 109.891L511.718 135.137C513.084 137.4 515.234 139.084 517.759 139.869C520.284 140.653 523.009 140.485 525.418 139.394C527.827 138.304 529.752 136.368 530.829 133.953C531.906 131.538 532.059 128.812 531.26 126.292V126.292Z" fill="#FFB8B8"/>
<path id="Vector_9" opacity="0.2" d="M531.26 126.292C530.796 124.791 530.008 123.411 528.952 122.249C527.896 121.086 526.598 120.169 525.15 119.562C523.701 118.955 522.137 118.673 520.568 118.736C518.999 118.799 517.462 119.206 516.067 119.927L423.971 86.884L419.914 109.891L511.718 135.137C513.084 137.4 515.234 139.084 517.759 139.869C520.284 140.653 523.009 140.485 525.418 139.394C527.827 138.304 529.752 136.368 530.829 133.953C531.906 131.538 532.059 128.812 531.26 126.292V126.292Z" fill="black"/>
<path id="Vector_10" d="M440.317 91.0764L431.621 113.797C431.373 114.443 430.989 115.029 430.495 115.513C430.001 115.998 429.408 116.371 428.757 116.606C428.106 116.84 427.412 116.932 426.722 116.875C426.032 116.817 425.363 116.612 424.76 116.272L403.623 104.376C400.323 103.091 397.668 100.55 396.238 97.3101C394.809 94.07 394.723 90.3954 395.998 87.0918C397.274 83.7882 399.807 81.1253 403.043 79.6867C406.279 78.2481 409.954 78.1514 413.261 79.4176L436.863 84.6523C437.539 84.8024 438.174 85.0963 438.726 85.5141C439.278 85.9319 439.733 86.4638 440.061 87.0734C440.389 87.6831 440.582 88.3562 440.626 89.047C440.67 89.7378 440.565 90.4299 440.317 91.0764V91.0764Z" fill="#6C63FF"/>
<path id="Vector_11" d="M450.071 292.005H462.331L468.164 260.208L450.069 260.209L450.071 292.005Z" fill="#FFB8B8"/>
<path id="Vector_12" d="M446.944 288.002L471.087 288.001H471.088C473.109 288.001 475.11 288.399 476.977 289.173C478.843 289.946 480.54 291.079 481.968 292.508C483.397 293.937 484.53 295.633 485.304 297.5C486.077 299.366 486.475 301.367 486.475 303.388V303.888L446.944 303.889L446.944 288.002Z" fill="#2F2E41"/>
<path id="Vector_13" d="M464.301 278.955C464.159 278.955 464.015 278.948 463.871 278.934L446.905 277.699C446.218 277.635 445.556 277.415 444.969 277.054C444.381 276.694 443.884 276.204 443.516 275.622C443.148 275.039 442.919 274.38 442.846 273.694C442.773 273.009 442.858 272.316 443.095 271.669L465.802 220.655C465.964 220.2 466.03 219.716 465.997 219.235C465.963 218.753 465.83 218.284 465.606 217.856C465.382 217.423 465.069 217.043 464.688 216.739C464.307 216.436 463.866 216.217 463.394 216.096C452.717 213.305 425.322 205.873 401.608 197.178C391.448 193.453 385.049 188.069 382.589 181.176C379.346 172.089 384.144 163.802 384.35 163.455L384.511 163.182L406.825 165.21L431.017 167.268L484.03 195.696C488.472 198.098 491.846 202.085 493.48 206.864C495.115 211.642 494.889 216.86 492.848 221.48L468.408 276.288C468.054 277.081 467.478 277.756 466.749 278.229C466.021 278.702 465.17 278.954 464.301 278.955Z" fill="#2F2E41"/>
<path id="Vector_14" d="M410.705 64.2812C424.27 64.2812 435.266 53.2849 435.266 39.7202C435.266 26.1555 424.27 15.1592 410.705 15.1592C397.141 15.1592 386.144 26.1555 386.144 39.7202C386.144 53.2849 397.141 64.2812 410.705 64.2812Z" fill="#FFB8B8"/>
<path id="Vector_15" d="M443.071 295.005H455.331L461.164 263.208L443.069 263.209L443.071 295.005Z" fill="#FFB8B8"/>
<path id="Vector_16" d="M439.944 291.002L464.087 291.001H464.088C466.109 291.001 468.11 291.399 469.977 292.173C471.843 292.946 473.54 294.079 474.968 295.508C476.397 296.937 477.53 298.633 478.304 300.5C479.077 302.366 479.475 304.367 479.475 306.388V306.888L439.944 306.889L439.944 291.002Z" fill="#2F2E41"/>
<path id="Vector_17" d="M457.301 281.955C457.159 281.955 457.015 281.948 456.871 281.934L439.905 280.699C439.218 280.635 438.556 280.415 437.969 280.054C437.381 279.694 436.884 279.204 436.516 278.622C436.148 278.039 435.919 277.38 435.846 276.694C435.773 276.009 435.858 275.316 436.095 274.669L458.802 223.655C458.964 223.2 459.03 222.716 458.997 222.235C458.963 221.753 458.83 221.284 458.606 220.856C458.382 220.423 458.069 220.043 457.688 219.739C457.307 219.436 456.866 219.217 456.394 219.096C445.717 216.305 418.322 208.873 394.608 200.178C384.448 196.453 378.049 191.069 375.589 184.176C372.346 175.089 377.144 166.802 377.35 166.455L377.511 166.182L399.825 168.21L424.017 170.268L477.03 198.696C481.472 201.098 484.846 205.085 486.48 209.864C488.115 214.642 487.889 219.86 485.848 224.48L461.408 279.288C461.054 280.081 460.478 280.756 459.749 281.229C459.021 281.702 458.17 281.954 457.301 281.955Z" fill="#2F2E41"/>
<path id="Vector_18" d="M418.28 78.2084L392.28 69.2084C392.28 69.2084 375.958 81.7484 383.799 112.857C387.893 128.91 386.7 145.855 380.399 161.177C379.64 163.073 378.766 164.92 377.78 166.708C377.78 166.708 406.78 201.708 433.78 175.708L423.28 125.208C423.28 125.208 439.78 91.7084 418.28 78.2084Z" fill="#6C63FF"/>
<path id="Vector_19" d="M413.755 65.1165C410.259 59.8842 407.5 52.629 411.349 47.6506C415.148 42.7365 422.641 43.4604 428.46 41.286C436.564 38.2573 441.264 28.7367 439.798 20.2103C438.332 11.684 431.488 4.61589 423.334 1.72386C415.18 -1.16817 405.985 -0.227612 398.001 3.10274C388.171 7.20244 379.74 15.133 376.204 25.179C372.668 35.225 374.558 47.2871 381.893 55.0086C389.757 63.287 402.099 65.4932 413.516 65.3593" fill="#2F2E41"/>
<path id="Vector_20" d="M530.038 125.291C529.392 123.86 528.44 122.588 527.249 121.564C526.057 120.541 524.656 119.791 523.144 119.367C521.632 118.944 520.045 118.857 518.495 119.113C516.946 119.369 515.471 119.962 514.176 120.85L418.706 99.4225L417.519 122.754L511.736 136.48C513.372 138.558 515.712 139.963 518.315 140.43C520.918 140.898 523.601 140.394 525.857 139.015C528.113 137.636 529.785 135.477 530.555 132.948C531.326 130.418 531.142 127.694 530.038 125.291V125.291Z" fill="#FFB8B8"/>
<path id="Vector_21" d="M435.445 101.566L429.618 125.186C429.452 125.858 429.144 126.486 428.713 127.028C428.283 127.57 427.74 128.013 427.123 128.326C426.506 128.64 425.828 128.817 425.137 128.845C424.445 128.873 423.756 128.751 423.115 128.489L400.673 119.291C397.237 118.425 394.285 116.232 392.465 113.192C390.645 110.153 390.105 106.515 390.964 103.078C391.822 99.6402 394.01 96.6839 397.046 94.8573C400.081 93.0307 403.718 92.483 407.157 93.3344L431.225 95.6169C431.914 95.6825 432.581 95.8958 433.18 96.2423C433.779 96.5889 434.297 97.0604 434.697 97.625C435.098 98.1895 435.372 98.8338 435.501 99.5139C435.63 100.194 435.611 100.894 435.445 101.566V101.566Z" fill="#6C63FF"/>
</g>
<g id="Scooter">
<path id="Vector_22" d="M406.51 212.508H310.529L309.511 182.998C309.467 181.718 309.701 180.445 310.196 179.264C310.692 178.084 311.437 177.025 312.381 176.16C313.324 175.296 314.444 174.646 315.663 174.255C316.882 173.865 318.172 173.743 319.442 173.899L375.297 180.738H375.303C383.584 180.761 391.518 184.064 397.367 189.926C403.217 195.787 406.504 203.728 406.51 212.008V212.508Z" fill="#6C63FF"/>
<path id="Vector_23" d="M538.51 147.329L505.51 162.329L509.842 178.64C518.209 210.138 520.429 242.952 516.382 275.29V275.29L540.51 280.329L560.51 229.329L553.51 171.329L538.51 147.329Z" fill="#6C63FF"/>
<path id="Vector_24" d="M603.26 222.829C581.578 222.829 563.908 238.591 563.051 258.329H643.469C642.611 238.591 624.942 222.829 603.26 222.829Z" fill="#3F3D56"/>
<path id="Vector_25" d="M586.381 226.231C585.253 137.132 534.51 145.329 534.51 145.329C534.51 145.329 535.459 173.062 535.915 173.925C568.25 235.104 514.885 306.829 446.955 293.634C445.674 293.385 444.444 293.133 443.264 292.877C434.656 291.08 427.057 286.071 422.011 278.871C416.965 271.67 414.852 262.817 416.1 254.114C422.792 200.378 389.51 201.329 389.51 201.329H340.843L315.57 178.583C314.678 177.78 313.603 177.208 312.438 176.917C311.274 176.626 310.056 176.624 308.891 176.912C307.726 177.2 306.649 177.77 305.755 178.57C304.861 179.371 304.176 180.378 303.761 181.504L300.51 190.329C300.51 190.329 252.51 195.329 256.51 242.329H271.35C271.314 243.665 271.367 245.001 271.51 246.329L382.261 245.429C388.753 245.376 394.483 250.636 394.51 257.128C394.516 258.709 394.204 260.275 393.592 261.732C392.979 263.189 392.079 264.507 390.946 265.609C389.812 266.71 388.468 267.571 386.993 268.141C385.519 268.71 383.945 268.977 382.365 268.924L364.51 268.329C359.01 292.829 372.51 309.329 387.385 319.704C401.39 329.331 418.008 334.435 435.002 334.329H483.51C546.51 334.329 557.51 281.329 557.51 281.329C590.51 267.329 586.381 226.231 586.381 226.231Z" fill="#3F3D56"/>
<path id="Vector_26" d="M505.604 166.761L493.73 134.512C493.111 132.831 492.83 131.045 492.901 129.255C492.973 127.465 493.396 125.707 494.147 124.081C494.898 122.455 495.962 120.993 497.278 119.778C498.594 118.563 500.136 117.62 501.817 117.001L535.857 104.47C538.814 103.381 541.957 102.885 545.106 103.01C548.255 103.136 551.348 103.881 554.209 105.202C557.071 106.523 559.644 108.395 561.781 110.71C563.919 113.025 565.58 115.739 566.669 118.697C567.651 121.351 568.152 124.159 568.15 126.989C568.137 130.583 567.324 134.128 565.769 137.368C564.215 140.608 561.957 143.461 559.162 145.719C557.143 147.339 554.873 148.619 552.442 149.508L505.604 166.761Z" fill="#3F3D56"/>
<path id="Vector_27" d="M567.65 126.989C567.647 130.509 566.855 133.984 565.332 137.158C563.809 140.332 561.594 143.124 558.85 145.329C554.639 144.218 550.721 142.204 547.368 139.426C544.014 136.648 541.306 133.173 539.431 129.243C537.556 125.313 536.56 121.021 536.512 116.667C536.463 112.313 537.363 108 539.15 104.029C542.58 103.283 546.133 103.315 549.549 104.122C552.965 104.929 556.157 106.491 558.891 108.693C561.624 110.895 563.83 113.682 565.346 116.848C566.861 120.014 567.649 123.479 567.65 126.989V126.989Z" fill="#FFEF63"/>
<path id="Vector_28" d="M265.01 248.829C272.742 248.829 279.01 241.218 279.01 231.829C279.01 222.44 272.742 214.829 265.01 214.829C257.278 214.829 251.01 222.44 251.01 231.829C251.01 241.218 257.278 248.829 265.01 248.829Z" fill="#FF0413"/>
<path id="Vector_29" d="M519.01 143.829C522.876 143.829 526.01 140.695 526.01 136.829C526.01 132.963 522.876 129.829 519.01 129.829C515.144 129.829 512.01 132.963 512.01 136.829C512.01 140.695 515.144 143.829 519.01 143.829Z" fill="#6C63FF"/>
</g>
<g id="Tank">
<path id="Vector_30" d="M363.731 107.829H296.789C295.898 107.829 295.017 108.004 294.194 108.345C293.372 108.685 292.624 109.184 291.995 109.814C291.365 110.444 290.866 111.191 290.525 112.013C290.185 112.836 290.01 113.718 290.01 114.608V181.55C290.01 182.44 290.185 183.322 290.525 184.145C290.866 184.967 291.365 185.715 291.995 186.344C292.624 186.974 293.372 187.473 294.194 187.813C295.017 188.154 295.898 188.329 296.789 188.329H363.731C364.621 188.329 365.503 188.154 366.325 187.814C367.148 187.473 367.895 186.974 368.525 186.344C369.154 185.715 369.654 184.967 369.994 184.145C370.335 183.322 370.51 182.44 370.51 181.55V114.608C370.51 113.718 370.335 112.836 369.994 112.013C369.654 111.191 369.154 110.444 368.525 109.814C367.895 109.184 367.148 108.685 366.325 108.345C365.503 108.004 364.621 107.829 363.731 107.829V107.829Z" fill="#0BC80A"/>
<path id="Vector_31" d="M370.51 114.608V123.505H290.01V114.608C290.01 113.718 290.185 112.836 290.525 112.013C290.866 111.191 291.365 110.444 291.995 109.814C292.624 109.184 293.372 108.685 294.194 108.345C295.017 108.004 295.898 107.829 296.789 107.829H363.731C364.621 107.829 365.503 108.004 366.325 108.345C367.148 108.685 367.895 109.184 368.525 109.814C369.154 110.444 369.654 111.191 369.994 112.013C370.335 112.836 370.51 113.718 370.51 114.608Z" fill="#52EA61"/>
<path id="Vector_32" d="M309.5 162C310.881 162 312 160.881 312 159.5C312 158.119 310.881 157 309.5 157C308.119 157 307 158.119 307 159.5C307 160.881 308.119 162 309.5 162Z" fill="white"/>
<path id="Bolt Food" d="M295.13 155V142.914H299.364C300.83 142.914 301.943 143.196 302.701 143.761C303.459 144.32 303.838 145.141 303.838 146.226C303.838 146.818 303.686 147.341 303.381 147.795C303.077 148.243 302.654 148.572 302.111 148.783C302.731 148.938 303.218 149.25 303.572 149.721C303.932 150.191 304.112 150.767 304.112 151.447C304.112 152.609 303.741 153.489 303 154.087C302.258 154.685 301.201 154.989 299.829 155H295.13ZM297.621 149.737V153H299.754C300.34 153 300.797 152.861 301.124 152.584C301.456 152.302 301.622 151.915 301.622 151.422C301.622 150.316 301.049 149.754 299.903 149.737H297.621ZM297.621 147.978H299.463C300.72 147.955 301.348 147.455 301.348 146.475C301.348 145.927 301.187 145.534 300.866 145.296C300.551 145.053 300.05 144.931 299.364 144.931H297.621V147.978ZM305.457 150.426C305.457 149.535 305.628 148.741 305.971 148.044C306.314 147.347 306.807 146.807 307.449 146.425C308.096 146.043 308.846 145.853 309.698 145.853C310.91 145.853 311.898 146.223 312.662 146.965C313.431 147.706 313.86 148.714 313.948 149.986L313.965 150.601C313.965 151.979 313.58 153.085 312.811 153.921C312.042 154.751 311.01 155.166 309.715 155.166C308.42 155.166 307.385 154.751 306.61 153.921C305.841 153.091 305.457 151.962 305.457 150.534V150.426ZM307.855 150.601C307.855 151.453 308.016 152.106 308.337 152.56C308.658 153.008 309.117 153.232 309.715 153.232C310.296 153.232 310.75 153.011 311.076 152.568C311.403 152.12 311.566 151.406 311.566 150.426C311.566 149.591 311.403 148.943 311.076 148.484C310.75 148.025 310.29 147.795 309.698 147.795C309.112 147.795 308.658 148.025 308.337 148.484C308.016 148.938 307.855 149.643 307.855 150.601ZM317.974 155H315.567V142.25H317.974V155ZM322.83 143.811V146.019H324.366V147.778H322.83V152.261C322.83 152.593 322.894 152.831 323.021 152.975C323.148 153.118 323.392 153.19 323.751 153.19C324.017 153.19 324.252 153.171 324.457 153.132V154.95C323.987 155.094 323.502 155.166 323.004 155.166C321.322 155.166 320.464 154.317 320.431 152.618V147.778H319.12V146.019H320.431V143.811H322.83ZM337.365 150.061H332.583V155H330.093V142.914H337.962V144.931H332.583V148.052H337.365V150.061ZM338.693 150.426C338.693 149.535 338.864 148.741 339.208 148.044C339.551 147.347 340.043 146.807 340.685 146.425C341.333 146.043 342.082 145.853 342.935 145.853C344.146 145.853 345.134 146.223 345.898 146.965C346.667 147.706 347.096 148.714 347.185 149.986L347.201 150.601C347.201 151.979 346.817 153.085 346.047 153.921C345.278 154.751 344.246 155.166 342.951 155.166C341.656 155.166 340.621 154.751 339.847 153.921C339.077 153.091 338.693 151.962 338.693 150.534V150.426ZM341.092 150.601C341.092 151.453 341.252 152.106 341.573 152.56C341.894 153.008 342.354 153.232 342.951 153.232C343.532 153.232 343.986 153.011 344.312 152.568C344.639 152.12 344.802 151.406 344.802 150.426C344.802 149.591 344.639 148.943 344.312 148.484C343.986 148.025 343.527 147.795 342.935 147.795C342.348 147.795 341.894 148.025 341.573 148.484C341.252 148.938 341.092 149.643 341.092 150.601ZM348.305 150.426C348.305 149.535 348.477 148.741 348.82 148.044C349.163 147.347 349.655 146.807 350.297 146.425C350.945 146.043 351.695 145.853 352.547 145.853C353.759 145.853 354.747 146.223 355.51 146.965C356.279 147.706 356.708 148.714 356.797 149.986L356.813 150.601C356.813 151.979 356.429 153.085 355.66 153.921C354.89 154.751 353.858 155.166 352.563 155.166C351.269 155.166 350.234 154.751 349.459 153.921C348.69 153.091 348.305 151.962 348.305 150.534V150.426ZM350.704 150.601C350.704 151.453 350.865 152.106 351.186 152.56C351.507 153.008 351.966 153.232 352.563 153.232C353.145 153.232 353.598 153.011 353.925 152.568C354.251 152.12 354.415 151.406 354.415 150.426C354.415 149.591 354.251 148.943 353.925 148.484C353.598 148.025 353.139 147.795 352.547 147.795C351.96 147.795 351.507 148.025 351.186 148.484C350.865 148.938 350.704 149.643 350.704 150.601ZM357.917 150.443C357.917 149.043 358.23 147.928 358.855 147.098C359.486 146.268 360.347 145.853 361.437 145.853C362.311 145.853 363.034 146.179 363.604 146.832V142.25H366.011V155H363.844L363.728 154.045C363.13 154.792 362.361 155.166 361.42 155.166C360.363 155.166 359.514 154.751 358.872 153.921C358.236 153.085 357.917 151.926 357.917 150.443ZM360.316 150.617C360.316 151.458 360.463 152.103 360.756 152.551C361.05 153 361.476 153.224 362.035 153.224C362.776 153.224 363.299 152.911 363.604 152.286V148.741C363.305 148.116 362.787 147.803 362.051 147.803C360.895 147.803 360.316 148.741 360.316 150.617Z" fill="white"/>
</g>
</g>
<defs>
<clipPath id="clip0">
<rect width="829" height="364.829" fill="white"/>
</clipPath>
</defs>
</svg>
